# xmcd
#
# Track frame offsets:
#	150
#	9856
#	20388
#	32686
#	43587
#	56107
#	67764
#	79393
#	92220
#	109188
#	122071
#	139718
#	150675
#	171861
#	194273
#	210026
#	224448
#	236105
#	249852
#	262282
#	271320
#	286766
#
# Disc length: 3995 seconds
#
# Revision: 0
# Processed by: cddbd v1.5.2PL0 Copyright (c) Steve Scherf et al.
# Submitted via: audiograbber 1.83.01
#
DISCID=320f9916
DTITLE=Various Artist - Bluegrass Class of 1990
DYEAR=1990
DGENRE=Bluegrass
TTITLE0=Ricky Skaggs - Lost and I´ll Never Find My Way
TTITLE1=Jim and Jesse - I´ll Love Nobody But You
TTITLE2=The Johnson Mountain Boys - Let the Whole World Talk
TTITLE3=Alison Krauss and Union Station - Love You in Vain
TTITLE4=Tony Rice - Bitter Green
TTITLE5=David Grisman - Feast Here Tonight
TTITLE6=The Nashville Bluegrass Band - Old Devil´s Dream
TTITLE7=Lynn Morris - What Was I Supposed to Do
TTITLE8=Sam Bush - Leather Britches
TTITLE9=J.D. Crowe - Old Home Place
TTITLE10=The Dry Branch Fire Squad - Devil, Take the Farmer
TTITLE11=The Whitstein Brothers - Mansion on the Hill
TTITLE12=Norman Blake and Tony Rice - Medley: Fiddler´s Dram - Whiskey Before B
TTITLE12=reakfast
TTITLE13=The Rice Brothers - This Old House
TTITLE14=Alison Krauss - Foolish Heart
TTITLE15=Bela Fleck - Whitewater
TTITLE16=The Bluegrass Album Band - Preaching, Praying, Singing
TTITLE17=The Johnson Mountain Boys - Don´t Worry
TTITLE18=Tony Furtado - John Henry
TTITLE19=David Grisman - I Ain´t Broke But I´m Badly Bent
TTITLE20=Tony Rice - Greenlight on the Southern
TTITLE21=The Nashville Bluegrass Band - No Hiding Place
EXTD=A Rounder Records Sampler
EXTT0=
EXTT1=
EXTT2=
EXTT3=
EXTT4=
EXTT5=
EXTT6=
EXTT7=
EXTT8=
EXTT9=
EXTT10=
EXTT11=
EXTT12=
EXTT13=
EXTT14=
EXTT15=
EXTT16=
EXTT17=
EXTT18=
EXTT19=
EXTT20=
EXTT21=
PLAYORDER=
